<?xml version="1.0" encoding="utf-8"?>
<svg xmlns="http://www.w3.org/2000/svg" xmlns:svg="http://www.w3.org/2000/svg" version="1.1" viewBox="0 0 1400 540">
	<title>The titlepage for the Standard Ebooks edition of The Strange Case of Dr. Jekyll and Mr. Hyde, by Robert Louis Stevenson</title>
	<g aria-label="THE STRANGE CASE">
		<path d="m 188.10233,68.245613 h 18.33918 V 130 h 17.59065 V 68.245613 h 18.33918 V 52.807016 h -54.26901 z"/>
		<path d="m 271.29678,99.029239 h 24.88889 V 130 h 17.59064 V 52.807016 H 296.18567 V 83.590642 H 271.29678 V 52.807016 H 253.70613 V 130 h 17.59065 z"/>
		<path d="M 374.14181,52.807016 H 329.97807 V 130 h 44.16374 v -15.4386 h -26.5731 V 99.029239 H 373.019 V 83.590642 H 347.56871 V 68.245613 h 26.5731 z"/>
		<path d="m 446.45614,51.403507 c -12.44444,0 -25.16959,9.169591 -25.16959,23.578948 0,8.046784 5.4269,15.251462 14.69006,19.836258 9.16959,4.584795 17.40351,7.111107 17.40351,12.725147 0,7.20468 -7.29825,7.57895 -11.1345,7.57895 -8.60819,0 -18.90059,-8.70176 -18.90059,-8.70176 l -8.79532,14.78363 c 0,0 10.94737,10.19883 29.00585,10.19883 15.06432,0 29.09941,-6.45614 29.09941,-24.88889 0,-10.105264 -9.45029,-17.40351 -18.05848,-21.052632 -8.79532,-3.742691 -16.09356,-6.83041 -16.09356,-11.134504 0,-4.210526 3.18128,-6.923976 9.16959,-6.923976 7.95321,0 15.62573,5.333333 15.62573,5.333333 l 7.11111,-14.035088 c 0,0 -9.91813,-7.298246 -23.95322,-7.298246 z"/>
		<path d="m 476.44297,68.245613 h 18.33918 V 130 h 17.59064 V 68.245613 h 18.33918 V 52.807016 h -54.269 z"/>
		<path d="M 542.04678,52.807016 V 130 h 17.59064 V 99.497075 L 583.21637,130 h 22.36257 l -26.5731,-31.906433 c 9.45029,-2.994152 15.81287,-10.760234 15.81287,-22.362574 0,-15.157895 -10.8538,-22.923977 -25.16959,-22.923977 z m 17.59064,34.245615 V 66.842104 h 2.05848 c 6.64328,0 14.59649,0.467836 14.59649,10.105263 0,9.637428 -7.95321,10.105264 -14.59649,10.105264 z"/>
		<path d="m 653.32018,52.807016 h -16.2807 L 605.88158,130 h 18.90059 l 5.7076,-15.4386 h 29.38012 L 665.57749,130 h 18.90059 z m 0.56141,46.31579 h -17.40351 l 8.60818,-22.45614 h 0.18714 z"/>
		<path d="m 709.98831,82.093566 h 0.18714 L 740.86551,130 h 17.59064 V 52.807016 h -17.59064 v 47.906434 h -0.18714 L 709.98831,52.807016 H 692.39767 V 130 h 17.59064 z"/>
		<path d="m 844.50148,86.771929 h -35.64912 v 13.567251 h 17.77778 c 0,9.45029 -8.32749,14.87719 -16.74854,14.87719 -10.8538,0 -19.64913,-10.66666 -19.64913,-23.766078 0,-13.380117 8.79533,-24.140352 19.64913,-24.140352 6.83041,0 12.72514,2.713451 17.21637,9.918129 L 838.60674,64.59649 c -6.73684,-8.140351 -16.18713,-13.192983 -29.75438,-13.192983 -21.7076,0 -37.61404,17.871346 -37.61404,40.046785 0,22.081868 16.84211,39.953218 37.61404,39.953218 15.15789,0 31.4386,-8.32749 35.64912,-27.88304 z"/>
		<path d="M 901.34941,52.807016 H 857.18566 V 130 h 44.16375 v -15.4386 h -26.5731 V 99.029239 H 900.2266 V 83.590642 H 874.77631 V 68.245613 h 26.5731 z"/>
		<path d="m 985.19882,114.09357 c -17.68421,0 -25.45029,-12.35088 -25.45029,-22.736846 0,-10.292397 7.76608,-22.643275 25.45029,-22.643275 8.98246,0 15.15788,4.77193 15.15788,4.77193 l 7.4854,-14.97076 c 0,0 -8.60819,-7.111112 -25.35673,-7.111112 -21.89474,0 -41.82456,17.964913 -41.82456,40.140352 0,22.081871 20.02339,39.859651 41.82456,39.859651 16.74854,0 25.35673,-7.11111 25.35673,-7.11111 l -7.4854,-14.97076 c 0,0 -6.17542,4.77193 -15.15788,4.77193 z"/>
		<path d="m 1058.8684,52.807016 h -16.2807 L 1011.4298,130 h 18.9006 l 5.7076,-15.4386 h 29.3801 L 1071.1257,130 h 18.9006 z m 0.5614,46.31579 h -17.4035 l 8.6082,-22.45614 h 0.1871 z"/>
		<path d="m 1124.5629,51.403507 c -12.4444,0 -25.1696,9.169591 -25.1696,23.578948 0,8.046784 5.4269,15.251462 14.6901,19.836258 9.1696,4.584795 17.4035,7.111107 17.4035,12.725147 0,7.20468 -7.2983,7.57895 -11.1345,7.57895 -8.6082,0 -18.9006,-8.70176 -18.9006,-8.70176 l -8.7953,14.78363 c 0,0 10.9473,10.19883 29.0058,10.19883 15.0644,0 29.0994,-6.45614 29.0994,-24.88889 0,-10.105264 -9.4503,-17.40351 -18.0584,-21.052632 -8.7954,-3.742691 -16.0936,-6.83041 -16.0936,-11.134504 0,-4.210526 3.1813,-6.923976 9.1696,-6.923976 7.9532,0 15.6257,5.333333 15.6257,5.333333 l 7.1111,-14.035088 c 0,0 -9.9181,-7.298246 -23.9532,-7.298246 z"/>
		<path d="m 1208.1477,52.807016 h -44.1638 V 130 h 44.1638 v -15.4386 h -26.5731 V 99.029239 h 25.4503 V 83.590642 h -25.4503 V 68.245613 h 26.5731 z"/>
	</g>
	<g aria-label="OF DR. JEKYLL">
		<path d="m 325.66081,191.35672 c 0,22.54971 16.09357,40.04679 38.92398,40.04679 22.17544,0 38.83041,-17.49708 38.83041,-40.04679 0,-22.5497 -17.40351,-39.95321 -38.83041,-39.95321 -21.23977,0 -38.92398,17.40351 -38.92398,39.95321 z m 18.99416,0 c 0,-11.50877 6.36257,-23.01754 19.92982,-23.01754 13.66082,0 19.83626,11.50877 19.83626,23.01754 0,11.50878 -5.80117,23.01755 -19.83626,23.01755 -14.40936,0 -19.92982,-11.50877 -19.92982,-23.01755 z"/>
		<path d="M 460.80847,152.80702 H 416.17689 V 230 h 17.59065 v -30.97076 h 24.98245 v -15.4386 h -24.98245 v -15.34503 h 27.04093 z"/>
		<path d="M 504.75877,152.80702 V 230 h 22.36258 c 21.23976,0 38.92397,-16.09357 38.92397,-38.64328 0,-22.45614 -17.77778,-38.5497 -38.92397,-38.5497 z m 17.59065,61.47368 v -45.75439 h 2.71345 c 13.09941,0 21.9883,10.0117 21.9883,22.92398 -0.0936,12.91228 -8.98246,22.83041 -21.9883,22.83041 z"/>
		<path d="M 578.83772,152.80702 V 230 h 17.59064 V 199.49708 L 620.00731,230 h 22.36258 l -26.5731,-31.90643 c 9.45029,-2.99416 15.81286,-10.76024 15.81286,-22.36258 0,-15.15789 -10.8538,-22.92397 -25.16959,-22.92397 z m 17.59064,34.24561 V 166.8421 h 2.05848 c 6.64328,0 14.5965,0.46784 14.5965,10.10527 0,9.63742 -7.95322,10.10526 -14.5965,10.10526 z"/>
		<path d="m 661.5731,209.97661 c -5.89474,0 -10.66667,4.77193 -10.66667,10.76023 0,5.89474 4.77193,10.66667 10.66667,10.66667 5.9883,0 10.76023,-4.77193 10.76023,-10.66667 0,-5.9883 -4.77193,-10.76023 -10.76023,-10.76023 z"/>
		<path d="m 752.79386,152.80702 h -17.59064 v 50.90058 c 0,7.76608 -3.83626,10.8538 -8.88889,10.8538 -4.49123,0 -10.0117,-5.23976 -10.0117,-5.23976 l -5.61404,14.69006 c 0,0 7.01755,7.39181 18.05848,7.39181 15.4386,0 24.04679,-8.04678 24.04679,-23.20468 z"/>
		<path d="M 812.22661,152.80702 H 768.06286 V 230 h 44.16375 v -15.4386 h -26.5731 v -15.53216 h 25.45029 v -15.4386 h -25.45029 v -15.34503 h 26.5731 z"/>
		<path d="m 897.60818,230 -35.92983,-40.60819 31.06433,-36.58479 h -21.33333 l -26.47954,31.53216 V 152.80702 H 827.33917 V 230 h 17.59064 V 197.25146 L 873.37426,230 Z"/>
		<path d="m 889.15939,152.80702 28.44444,42.5731 V 230 h 17.59065 v -34.61988 l 28.44444,-42.5731 h -21.1462 l -16.09356,24.70175 -16.09357,-24.70175 z"/>
		<path d="M 989.06727,152.80702 H 971.47662 V 230 h 44.16378 v -15.4386 h -26.57313 z"/>
		<path d="M 1046.8816,152.80702 H 1029.291 V 230 h 44.1637 v -15.4386 h -26.5731 z"/>
	</g>
	<g aria-label="AND MR. HYDE">
		<path d="m 360.22806,252.80702 h -16.2807 L 312.78947,330 h 18.90058 l 5.7076,-15.4386 h 29.38012 L 372.48537,330 h 18.90059 z m 0.56141,46.31579 h -17.40351 l 8.60819,-22.45614 h 0.18713 z"/>
		<path d="m 416.89619,282.09357 h 0.18714 L 447.77339,330 h 17.59064 v -77.19298 h -17.59064 v 47.90643 h -0.18714 L 416.89619,252.80702 H 399.30555 V 330 h 17.59064 z"/>
		<path d="M 481.60819,252.80702 V 330 h 22.36258 c 21.23976,0 38.92397,-16.09357 38.92397,-38.64328 0,-22.45614 -17.77777,-38.5497 -38.92397,-38.5497 z m 17.59065,61.47368 v -45.75439 h 2.71345 c 13.09941,0 21.9883,10.0117 21.9883,22.92398 -0.0936,12.91228 -8.98245,22.83041 -21.9883,22.83041 z"/>
		<path d="m 650.08479,330 h 17.59064 l -6.92398,-77.19298 H 642.038 l -17.1228,44.53801 -17.12281,-44.53801 H 589.07894 L 582.15496,330 h 17.59065 l 3.64912,-45.75439 h 0.46783 l 15.81287,45.28655 h 10.47953 l 15.81287,-45.28655 h 0.46783 z"/>
		<path d="M 679.72224,252.80702 V 330 h 17.59064 V 299.49708 L 720.89183,330 h 22.36257 l -26.5731,-31.90643 c 9.4503,-2.99416 15.81287,-10.76024 15.81287,-22.36258 0,-15.15789 -10.8538,-22.92397 -25.16959,-22.92397 z m 17.59064,34.24561 V 266.8421 h 2.05848 c 6.64328,0 14.59649,0.46784 14.59649,10.10527 0,9.63742 -7.95321,10.10526 -14.59649,10.10526 z"/>
		<path d="m 762.4576,309.97661 c -5.89474,0 -10.66667,4.77193 -10.66667,10.76023 0,5.89474 4.77193,10.66667 10.66667,10.66667 5.9883,0 10.76023,-4.77193 10.76023,-10.66667 0,-5.9883 -4.77193,-10.76023 -10.76023,-10.76023 z"/>
		<path d="m 837.67836,299.02924 h 24.88889 V 330 h 17.59064 v -77.19298 h -17.59064 v 30.78362 H 837.67836 V 252.80702 H 820.08772 V 330 h 17.59064 z"/>
		<path d="m 879.53214,252.80702 28.44445,42.5731 V 330 h 17.59064 v -34.61988 l 28.44445,-42.5731 h -21.1462 l -16.09357,24.70175 -16.09357,-24.70175 z"/>
		<path d="M 961.84944,252.80702 V 330 h 22.36257 c 21.23979,0 38.92399,-16.09357 38.92399,-38.64328 0,-22.45614 -17.7778,-38.5497 -38.92399,-38.5497 z m 17.59064,61.47368 v -45.75439 h 2.71345 c 13.09941,0 21.98827,10.0117 21.98827,22.92398 -0.093,12.91228 -8.98242,22.83041 -21.98827,22.83041 z"/>
		<path d="m 1080.0921,252.80702 h -44.1637 V 330 h 44.1637 v -15.4386 h -26.5731 v -15.53216 h 25.4503 v -15.4386 h -25.4503 v -15.34503 h 26.5731 z"/>
	</g>
	<g aria-label="ROBERT LOUIS STEVENSON">
		<path d="M 155.8909,432.10526 V 490 h 13.19299 V 467.12281 L 186.7681,490 h 16.77193 L 183.6102,466.07018 c 7.08772,-2.24562 11.85965,-8.07018 11.85965,-16.77193 0,-11.36842 -8.14035,-17.19299 -18.87719,-17.19299 z m 13.19299,25.68421 v -15.15789 h 1.54386 c 4.98245,0 10.94736,0.35088 10.94736,7.57895 0,7.22807 -5.96491,7.57894 -10.94736,7.57894 z"/>
		<path d="m 208.59595,461.01754 c 0,16.91228 12.07017,30.03509 29.19298,30.03509 16.63158,0 29.1228,-13.12281 29.1228,-30.03509 0,-16.91228 -13.05263,-29.96491 -29.1228,-29.96491 -15.92983,0 -29.19298,13.05263 -29.19298,29.96491 z m 14.24561,0 c 0,-8.63157 4.77193,-17.26315 14.94737,-17.26315 10.24561,0 14.87719,8.63158 14.87719,17.26315 0,8.63158 -4.35088,17.26316 -14.87719,17.26316 -10.80702,0 -14.94737,-8.63158 -14.94737,-17.26316 z"/>
		<path d="M 277.73301,432.10526 V 490 h 21.96491 c 12,0 18.94737,-6.59649 18.94737,-16.14035 0,-9.33333 -5.12281,-13.33333 -12.35088,-14.59649 4.91228,-2.52632 7.22807,-7.08772 7.22807,-12.42105 0,-11.01755 -7.85965,-14.73685 -17.82456,-14.73685 z m 13.19298,22.66667 V 442.2807 h 1.05263 c 5.75439,0 8.77193,1.75439 8.77193,5.89474 0,4.8421 -3.08772,6.59649 -8.77193,6.59649 z m 0,25.05263 v -13.68421 h 4.14035 c 6.24561,0 9.68421,1.89474 9.68421,7.22807 0,4.5614 -3.4386,6.45614 -9.68421,6.45614 z"/>
		<path d="M 362.59376,432.10526 H 329.47095 V 490 h 33.12281 v -11.57895 h -19.92983 v -11.64912 h 19.08772 v -11.57895 h -19.08772 v -11.50877 h 19.92983 z"/>
		<path d="M 375.17818,432.10526 V 490 h 13.19298 V 467.12281 L 406.05537,490 h 16.77193 l -19.92982,-23.92982 c 7.08772,-2.24562 11.85965,-8.07018 11.85965,-16.77193 0,-11.36842 -8.14035,-17.19299 -18.87719,-17.19299 z m 13.19298,25.68421 v -15.15789 h 1.54386 c 4.98246,0 10.94737,0.35088 10.94737,7.57895 0,7.22807 -5.96491,7.57894 -10.94737,7.57894 z"/>
		<path d="m 424.08938,443.68421 h 13.75438 V 490 h 13.19298 v -46.31579 h 13.75439 v -11.57895 h -40.70175 z"/>
		<path d="M 511.92379,432.10526 H 498.73081 V 490 h 33.12281 v -11.57895 h -19.92983 z"/>
		<path d="m 540.74507,461.01754 c 0,16.91228 12.07017,30.03509 29.19298,30.03509 16.63158,0 29.1228,-13.12281 29.1228,-30.03509 0,-16.91228 -13.05263,-29.96491 -29.1228,-29.96491 -15.92983,0 -29.19298,13.05263 -29.19298,29.96491 z m 14.24561,0 c 0,-8.63157 4.77193,-17.26315 14.94737,-17.26315 10.24561,0 14.87719,8.63158 14.87719,17.26315 0,8.63158 -4.35088,17.26316 -14.87719,17.26316 -10.80702,0 -14.94737,-8.63158 -14.94737,-17.26316 z"/>
		<path d="m 654.37334,432.10526 h -13.19298 v 33.47369 c 0,9.68421 -2.94737,12.49123 -9.40351,12.49123 -6.45614,0 -9.40351,-2.80702 -9.40351,-12.49123 v -33.47369 h -13.19298 v 37.33334 c 0,14.31579 7.85965,21.61403 22.59649,21.61403 14.73684,0 22.59649,-7.29824 22.59649,-21.61403 z"/>
		<path d="M 680.2955,432.10526 H 667.10251 V 490 h 13.19299 z"/>
		<path d="m 713.72094,431.05263 c -9.33333,0 -18.87719,6.8772 -18.87719,17.68421 0,6.03509 4.07017,11.4386 11.01754,14.8772 6.87719,3.43859 13.05263,5.33333 13.05263,9.54385 0,5.40351 -5.47368,5.68422 -8.35087,5.68422 -6.45614,0 -14.17544,-6.52632 -14.17544,-6.52632 l -6.59649,11.08772 c 0,0 8.21052,7.64912 21.75438,7.64912 11.29825,0 21.82456,-4.8421 21.82456,-18.66666 0,-7.57895 -7.08772,-13.05264 -13.54386,-15.78948 -6.59649,-2.80702 -12.07017,-5.12281 -12.07017,-8.35088 0,-3.15789 2.38596,-5.19298 6.87719,-5.19298 5.96491,0 11.7193,4 11.7193,4 l 5.33333,-10.52631 c 0,0 -7.43859,-5.47369 -17.96491,-5.47369 z"/>
		<path d="m 788.68804,431.05263 c -9.33333,0 -18.87719,6.8772 -18.87719,17.68421 0,6.03509 4.07018,11.4386 11.01754,14.8772 6.8772,3.43859 13.05264,5.33333 13.05264,9.54385 0,5.40351 -5.47369,5.68422 -8.35088,5.68422 -6.45614,0 -14.17544,-6.52632 -14.17544,-6.52632 l -6.59649,11.08772 c 0,0 8.21052,7.64912 21.75438,7.64912 11.29825,0 21.82457,-4.8421 21.82457,-18.66666 0,-7.57895 -7.08772,-13.05264 -13.54386,-15.78948 -6.59649,-2.80702 -12.07018,-5.12281 -12.07018,-8.35088 0,-3.15789 2.38597,-5.19298 6.87719,-5.19298 5.96492,0 11.7193,4 11.7193,4 l 5.33334,-10.52631 c 0,0 -7.4386,-5.47369 -17.96492,-5.47369 z"/>
		<path d="m 812.42818,443.68421 h 13.75439 V 490 h 13.19298 v -46.31579 h 13.75439 v -11.57895 h -40.70176 z"/>
		<path d="m 896.00382,432.10526 h -33.1228 V 490 h 33.1228 V 478.42105 H 876.074 v -11.64912 h 19.08772 V 455.19298 H 876.074 v -11.50877 h 19.92982 z"/>
		<path d="m 926.69355,490 h 10.38597 l 24.2807,-57.89474 h -14.87719 l -14.59649,38.03509 -14.59649,-38.03509 h -14.8772 z"/>
		<path d="M 1001.6727,432.10526 H 968.5499 V 490 h 33.1228 v -11.57895 h -19.92982 v -11.64912 h 19.08772 v -11.57895 h -19.08772 v -11.50877 h 19.92982 z"/>
		<path d="m 1027.4501,454.07018 h 0.1403 L 1050.608,490 h 13.193 v -57.89474 h -13.193 v 35.92983 h -0.1404 l -23.0175,-35.92983 h -13.193 V 490 h 13.193 z"/>
		<path d="m 1097.1968,431.05263 c -9.3333,0 -18.8772,6.8772 -18.8772,17.68421 0,6.03509 4.0702,11.4386 11.0176,14.8772 6.8772,3.43859 13.0526,5.33333 13.0526,9.54385 0,5.40351 -5.4737,5.68422 -8.3509,5.68422 -6.4561,0 -14.1754,-6.52632 -14.1754,-6.52632 l -6.5965,11.08772 c 0,0 8.2105,7.64912 21.7544,7.64912 11.2982,0 21.8246,-4.8421 21.8246,-18.66666 0,-7.57895 -7.0878,-13.05264 -13.5439,-15.78948 -6.5965,-2.80702 -12.0702,-5.12281 -12.0702,-8.35088 0,-3.15789 2.386,-5.19298 6.8772,-5.19298 5.9649,0 11.7193,4 11.7193,4 l 5.3333,-10.52631 c 0,0 -7.4386,-5.47369 -17.9649,-5.47369 z"/>
		<path d="m 1125.4161,461.01754 c 0,16.91228 12.0702,30.03509 29.193,30.03509 16.6316,0 29.1228,-13.12281 29.1228,-30.03509 0,-16.91228 -13.0526,-29.96491 -29.1228,-29.96491 -15.9298,0 -29.193,13.05263 -29.193,29.96491 z m 14.2456,0 c 0,-8.63157 4.772,-17.26315 14.9474,-17.26315 10.2456,0 14.8772,8.63158 14.8772,17.26315 0,8.63158 -4.3509,17.26316 -14.8772,17.26316 -10.807,0 -14.9474,-8.63158 -14.9474,-17.26316 z"/>
		<path d="m 1207.7461,454.07018 h 0.1404 L 1230.904,490 h 13.193 v -57.89474 h -13.193 v 35.92983 h -0.1403 l -23.0176,-35.92983 h -13.193 V 490 h 13.193 z"/>
	</g>
</svg>
